<?xml version="1.0" encoding="UTF-8"?>
<svg version="1.1" xmlns="http://www.w3.org/2000/svg" width="1610" height="500">
<path d="M0 0 C1.11955078 -0.0309375 1.11955078 -0.0309375 2.26171875 -0.0625 C18.33258025 -0.1656837 34.3130074 3.5617814 49.80587769 7.46478271 C83.90412078 16.01929655 117.98569699 20.86842503 153.01171875 23.50390625 C153.73080414 23.55805065 154.44988953 23.61219505 155.19076538 23.66798019 C162.50481231 24.21704771 169.81956066 24.75426655 177.13642216 25.26452541 C202.64100029 27.0466586 202.64100029 27.0466586 215.3046875 28.7578125 C216.1524324 28.8720607 217.00017731 28.9863089 217.87361145 29.10401917 C230.98182971 31.00466145 244.51168128 34.03075193 253.75 44.1875 C259.12350884 51.93167451 260.81994782 59.97601207 259.875 69.25 C257.31695258 79.46677975 250.98979508 86.48699729 242.2109375 92 C238.57771991 93.9441967 234.8619486 95.23871194 230.875 96.25 C230.16730469 96.435625 229.45960938 96.62125 228.73046875 96.8125 C217.05302431 98.60165701 204.51172978 97.4481474 192.79963684 96.53788757 C176.20076059 95.24806706 159.67350134 94.90519755 143.0300293 94.93432617 C140.11516091 94.9390077 137.20070486 94.93182102 134.28588867 94.91381836 C114.32973742 94.79179078 95.09056544 95.16147252 75.875 101.25 C75.875 101.58 75.875 101.91 75.875 102.25 C170.74681602 120.5070889 170.74681602 120.5070889 260.0234375 99.7265625 C270.32982215 91.31560491 276.29556999 80.09487185 277.8125 66.9375 C278.15469902 60.72584391 277.07214519 55.15788888 275.56640625 49.1484375 C274.875 46.25 274.875 46.25 274.875 43.25 C310.68136151 33.01449881 346.49165574 22.7990285 382.4375 13.0625 C383.67907867 12.72557129 384.92065735 12.38864258 386.19985962 12.04150391 C389.6962563 11.09374022 393.19356808 10.14945954 396.69140625 9.20703125 C397.70068176 8.93401688 398.70995728 8.6610025 399.74981689 8.37971497 C419.22386185 3.15920311 443.92445755 -0.50480901 462.47265625 9.67578125 C468.27168463 13.74878303 473.14099163 19.07774188 474.39453125 26.203125 C475.08887358 34.01679069 475.14005889 39.46408305 470.67578125 46.0078125 C461.73111946 56.47846646 444.70265891 61.08272476 432.453125 66.28198242 C409.45275793 76.06211448 386.84232257 86.68198354 364.375 97.625 C363.53498444 98.03339111 362.69496887 98.44178223 361.82949829 98.86254883 C350.4597786 104.39846678 339.22082598 110.14955758 328.05712891 116.08959961 C326.02041444 117.17267232 323.98150744 118.25144822 321.94140625 119.328125 C305.43576311 128.04166924 289.04521714 136.9244982 272.875 146.25 C271.43447266 147.08047852 271.43447266 147.08047852 269.96484375 147.92773438 C266.97394005 149.65568071 263.98614385 151.38884166 261 153.125 C260.01620361 153.69669922 259.03240723 154.26839844 258.01879883 154.85742188 C252.72475633 157.94981496 247.47421698 161.09999515 242.26171875 164.328125 C241.16263184 165.00375488 240.06354492 165.67938477 238.93115234 166.37548828 C236.84172065 167.66349412 234.75937339 168.96310039 232.68603516 170.27685547 C218.78473208 178.82523756 204.99845222 181.13910974 188.95703125 179.359375 C186.82213978 179.1431898 184.68720956 178.92738703 182.55224609 178.71191406 C180.87711945 178.53746765 180.87711945 178.53746765 179.16815186 178.35949707 C137.54551765 174.06052789 95.71089314 171.91072848 53.875 171.25 C52.53514426 171.22308398 51.19530027 171.1955766 49.85546875 171.16748047 C-11.38187579 169.93437321 -76.0032319 178.55278805 -125.23046875 217.9609375 C-126.18566406 218.71632813 -127.14085937 219.47171875 -128.125 220.25 C-128.62765381 220.74153564 -129.13030762 221.23307129 -129.64819336 221.73950195 C-132.26825113 224.07030472 -133.985924 225.2968129 -137.57250977 225.14941406 C-140.56213342 224.50013745 -143.40631018 223.64374493 -146.3125 222.6875 C-147.39893799 222.35468018 -148.48537598 222.02186035 -149.60473633 221.67895508 C-153.12719352 220.5794264 -156.62643489 219.42320592 -160.125 218.25 C-161.88070312 217.66895508 -161.88070312 217.66895508 -163.671875 217.07617188 C-198.36426722 205.48020157 -231.66609391 190.04743344 -258.125 164.25 C-258.764375 163.6725 -259.40375 163.095 -260.0625 162.5 C-268.25905113 154.91060081 -274.52372343 145.18069723 -279.25 135.125 C-279.54519531 134.49787109 -279.84039062 133.87074219 -280.14453125 133.22460938 C-281.61619577 129.92592721 -282.125 127.94125413 -282.125 124.25 C-281.06104004 123.9190332 -279.99708008 123.58806641 -278.90087891 123.24707031 C-227.76453086 107.31121426 -178.19024395 89.23048407 -130.00439453 65.65380859 C-127.36230252 64.36569353 -124.71207264 63.09646888 -122.05859375 61.83203125 C-98.39638685 50.43557876 -75.69744731 36.50024748 -54.88696289 20.48339844 C-38.18766648 7.65243801 -21.46160452 0.138239 0 0 Z " fill="#EA5040" transform="translate(709.125,270.75)"/>
<path d="M0 0 C15.93385026 13.7785584 25.73401841 32.91891379 28.25 53.8125 C29.59346291 75.23542688 24.82771423 97.24811617 10.63671875 113.984375 C7.94443441 117.0346884 5.12460625 119.93370336 2.25 122.8125 C1.59257813 123.48152344 0.93515625 124.15054688 0.2578125 124.83984375 C-15.91558776 140.14557233 -37.74125189 145.60194811 -59.39453125 145.1171875 C-81.02986938 144.18306585 -100.83547557 133.66539296 -115.6953125 118.14453125 C-130.81701729 100.9816838 -137.71491806 79.5964381 -136.88623047 56.92333984 C-135.49670852 35.39322021 -124.88426654 15.27598851 -109.37890625 0.5625 C-77.29884667 -26.40792776 -32.26912025 -26.57289006 0 0 Z M-56.75 2.8125 C-56.82205511 4.49858966 -56.83386068 6.18750659 -56.8125 7.875 C-56.80347656 8.79410156 -56.79445313 9.71320312 -56.78515625 10.66015625 C-56.77355469 11.37042969 -56.76195312 12.08070312 -56.75 12.8125 C-57.86375 12.874375 -58.9775 12.93625 -60.125 13 C-66.65670156 13.8353153 -73.21133703 16.6904348 -77.6875 21.625 C-82.64848737 29.29198049 -83.77899256 36.14064499 -82.38671875 45.16796875 C-80.66226765 51.98365645 -76.40312481 55.87756903 -70.75 59.8125 C-66.51347759 62.15035766 -62.44149292 63.63962677 -57.75 64.8125 C-57.255 79.1675 -57.255 79.1675 -56.75 93.8125 C-64.32907975 89.07557515 -66.74948681 87.24842056 -70.1875 79.625 C-72.0205239 76.32555698 -73.25076302 75.19591927 -76.75 73.8125 C-80.45028236 74.03016367 -82.10491041 74.16741041 -84.75 76.8125 C-85.27290148 83.90518932 -83.17807917 90.31311136 -78.75 95.8125 C-72.20318057 101.98761356 -65.45377398 104.09198654 -56.75 105.8125 C-56.255 111.7525 -56.255 111.7525 -55.75 117.8125 C-54.1 118.1425 -52.45 118.4725 -50.75 118.8125 C-48.47783152 116.97512173 -48.47783152 116.97512173 -48.5546875 114.2109375 C-48.57789063 113.21320313 -48.60109375 112.21546875 -48.625 111.1875 C-48.64304687 110.18460937 -48.66109375 109.18171875 -48.6796875 108.1484375 C-48.70289063 107.37757813 -48.72609375 106.60671875 -48.75 105.8125 C-47.66332031 105.64814453 -47.66332031 105.64814453 -46.5546875 105.48046875 C-38.79913713 104.20855849 -32.51827274 102.43286831 -26.75 96.8125 C-21.51989577 88.82738312 -20.03122085 82.33293329 -20.75 72.8125 C-22.74352688 65.89378906 -27.08899198 60.20879616 -33.11328125 56.265625 C-38.76950473 53.27477588 -43.20386083 52.26719759 -49.75 50.8125 C-49.75 42.2325 -49.75 33.6525 -49.75 24.8125 C-43.03733624 28.16883188 -43.03733624 28.16883188 -40.5625 33.375 C-38.48961401 37.77451175 -38.48961401 37.77451175 -34.75 40.8125 C-31.09044098 40.68180146 -28.66584431 40.58062749 -25.8125 38.1875 C-24.24401648 34.68147801 -24.18465071 32.64431187 -24.75 28.8125 C-27.88977473 22.1074133 -32.18435615 18.06119696 -38.75 14.8125 C-39.61625 14.379375 -40.4825 13.94625 -41.375 13.5 C-44.24297303 12.66979728 -46.78011367 12.67436575 -49.75 12.8125 C-49.73839844 12.10222656 -49.72679687 11.39195313 -49.71484375 10.66015625 C-49.70582031 9.74105469 -49.69679688 8.82195313 -49.6875 7.875 C-49.67589844 6.95847656 -49.66429687 6.04195312 -49.65234375 5.09765625 C-49.49050951 2.84656673 -49.49050951 2.84656673 -50.75 1.8125 C-54.03894893 1.40621033 -54.03894893 1.40621033 -56.75 2.8125 Z " fill="#EA5040" transform="translate(1096.75,24.1875)"/>
<path d="M0 0 C18.22849544 14.09307558 29.34854175 33.19896644 32.59375 56.00390625 C35.12492415 76.48820011 29.87789382 97.11673781 18.0625 114.0625 C14.66452032 118.32331048 10.91020476 122.20932197 7.0625 126.0625 C6.33160156 126.805 5.60070312 127.5475 4.84765625 128.3125 C-9.69926297 142.18218834 -29.59660556 148.69018412 -49.4375 149.3125 C-73.615551 148.55414785 -95.01149424 138.8562356 -111.5078125 121.33203125 C-127.61043748 102.41827004 -133.74781088 80.52539203 -131.9375 56.0625 C-129.38613228 34.43531486 -117.20412224 15.12629636 -100.9375 1.0625 C-70.41136006 -22.20990371 -30.86908596 -21.50961344 0 0 Z M-51.9375 6.0625 C-52.00955511 7.74858966 -52.02136068 9.43750659 -52 11.125 C-51.99097656 12.04410156 -51.98195313 12.96320313 -51.97265625 13.91015625 C-51.96105469 14.62042969 -51.94945312 15.33070313 -51.9375 16.0625 C-52.88109375 16.20945312 -52.88109375 16.20945312 -53.84375 16.359375 C-61.34260454 17.66941585 -67.22939997 19.41457997 -72.75 24.8125 C-77.78572289 32.29414543 -78.84383485 39.06122925 -77.9375 48.0625 C-76.73327274 53.11278641 -73.92689175 57.73800687 -69.9375 61.0625 C-63.97045801 64.64942974 -58.84432812 66.91136198 -51.9375 68.0625 C-51.9375 77.6325 -51.9375 87.2025 -51.9375 97.0625 C-60.17000696 92.94624652 -61.75352739 91.51780413 -65.5 83.875 C-67.14301014 80.42403311 -67.14301014 80.42403311 -69.9375 78.0625 C-72.73758184 77.69952643 -75.07743294 77.83551055 -77.9375 78.0625 C-80.29471842 80.01042468 -80.29471842 80.01042468 -80.375 83.5625 C-80.19399338 89.78460251 -77.38968534 95.34228509 -73.2578125 99.92578125 C-66.54305606 105.93921868 -59.68954586 107.738792 -50.9375 109.0625 C-50.94910156 109.91714844 -50.96070313 110.77179688 -50.97265625 111.65234375 C-50.98167969 112.75707031 -50.99070312 113.86179687 -51 115 C-51.01160156 116.10214844 -51.02320313 117.20429688 -51.03515625 118.33984375 C-51.25012571 120.97697634 -51.25012571 120.97697634 -49.9375 122.0625 C-48.27132885 122.10313832 -46.60361905 122.105221 -44.9375 122.0625 C-43.61520811 119.41791621 -43.84072806 117.38488699 -43.875 114.4375 C-43.88402344 113.43460937 -43.89304687 112.43171875 -43.90234375 111.3984375 C-43.91394531 110.62757813 -43.92554688 109.85671875 -43.9375 109.0625 C-42.65875 109.000625 -41.38 108.93875 -40.0625 108.875 C-32.68015415 108.01469513 -26.22438543 105.1712057 -21.5 99.3125 C-17.23440623 92.88389976 -14.8690383 85.79400757 -15.9375 78.0625 C-17.28524626 71.58208671 -19.75804284 66.29931623 -24.9375 62.0625 C-31.49843345 58.05765454 -37.4182742 55.94230645 -44.9375 54.0625 C-44.9375 45.4825 -44.9375 36.9025 -44.9375 28.0625 C-38.35213415 32.4527439 -38.35213415 32.4527439 -35.9375 37.0625 C-33.67015562 40.74264326 -33.67015562 40.74264326 -30.9375 44.0625 C-26.32143667 44.48544645 -26.32143667 44.48544645 -22.0625 43 C-20.27100188 39.91464212 -19.99608408 37.63612886 -19.9375 34.0625 C-21.73818894 27.8853022 -25.57831265 23.48670666 -30.9375 20.0625 C-35.68241258 17.70832149 -39.60123986 16.0625 -44.9375 16.0625 C-44.92589844 15.43601563 -44.91429687 14.80953125 -44.90234375 14.1640625 C-44.89332031 13.34679687 -44.88429688 12.52953125 -44.875 11.6875 C-44.86339844 10.87539062 -44.85179687 10.06328125 -44.83984375 9.2265625 C-44.79283666 7.01312858 -44.79283666 7.01312858 -45.9375 5.0625 C-49.22680404 4.69564303 -49.22680404 4.69564303 -51.9375 6.0625 Z " fill="#EA5040" transform="translate(927.9375,112.9375)"/>
<path d="M0 0 C4.92346513 0.98469303 7.12112806 1.9830996 11 5 C13.59863646 9.20186302 13.64240922 13.19444532 13 18 C11.5625 21.375 11.5625 21.375 9 24 C4.545 25.485 4.545 25.485 0 27 C0 18.09 0 9.18 0 0 Z " fill="#EA5040" transform="translate(1046,92)"/>
<path d="M0 0 C5.92295174 1.97431725 7.74813629 2.94589739 12 7 C13.3605163 11.08154889 13.80116991 14.76588049 12.31640625 18.90625 C10.07555779 23.29496565 7.74433114 25.28396533 3 27 C2.01 27 1.02 27 0 27 C0 18.09 0 9.18 0 0 Z " fill="#EA5040" transform="translate(882,184)"/>
<path d="M0 0 C0 7.59 0 15.18 0 23 C-6.23549509 21.96075082 -7.10573106 21.45059307 -11 17 C-11.33 16.67 -11.66 16.34 -12 16 C-12.69000381 11.22911652 -12.74321901 7.99803695 -9.8125 4.0625 C-6.67031036 1.7582276 -3.97113324 0 0 0 Z " fill="#EA5040" transform="translate(875,143)"/>
<path d="M0 0 C0 7.59 0 15.18 0 23 C-8.61538462 20.53846154 -8.61538462 20.53846154 -12 15 C-12.742983 11.91329826 -12.52090607 10.28170822 -12 7 C-8.6800216 2.75780538 -5.46637358 0 0 0 Z " fill="#EA5040" transform="translate(1039,51)"/>
</svg>
